<svg xmlns="http://www.w3.org/2000/svg" xmlns:xlink="http://www.w3.org/1999/xlink" zoomAndPan="magnify" preserveAspectRatio="xMidYMid meet" version="1.0" viewBox="8.72 166.97 359.09 41.25"><defs><g/><clipPath id="e724c3ec19"><path d="M 8.722656 166.972656 L 49.972656 166.972656 L 49.972656 208.222656 L 8.722656 208.222656 Z M 8.722656 166.972656 " clip-rule="nonzero"/></clipPath></defs><g clip-path="url(#e724c3ec19)"><path fill="#dd1919" d="M 17.800781 197.6875 L 40.640625 197.6875 L 40.640625 199.269531 L 17.800781 199.269531 Z M 25.910156 179.496094 L 32.53125 179.496094 L 32.53125 185.816406 C 32.53125 185.933594 32.625 186.023438 32.742188 186.023438 L 38.265625 186.023438 C 38.382812 186.023438 38.476562 186.117188 38.476562 186.234375 C 38.480469 186.289062 38.460938 186.34375 38.417969 186.382812 L 29.371094 195.433594 C 29.285156 195.515625 29.15625 195.515625 29.070312 195.4375 C 29.070312 195.433594 29.070312 195.433594 29.070312 195.433594 L 20.023438 186.382812 C 19.941406 186.304688 19.941406 186.167969 20.023438 186.085938 C 20.0625 186.046875 20.117188 186.023438 20.171875 186.023438 L 25.699219 186.023438 C 25.816406 186.023438 25.910156 185.933594 25.910156 185.816406 Z M 25.910156 175.972656 L 32.53125 175.972656 L 32.53125 178.441406 L 25.910156 178.441406 Z M 26.121094 172.375 L 32.324219 172.375 C 32.4375 172.375 32.53125 172.46875 32.53125 172.585938 L 32.53125 174.917969 L 25.910156 174.917969 L 25.910156 172.585938 C 25.910156 172.46875 26.003906 172.375 26.121094 172.375 Z M 28.632812 166.984375 C 17.539062 167.300781 8.714844 176.386719 8.722656 187.484375 C 8.699219 198.808594 17.863281 208.003906 29.179688 208.023438 C 40.503906 208.046875 49.699219 198.882812 49.722656 187.566406 C 49.722656 187.539062 49.722656 187.511719 49.722656 187.484375 C 49.726562 176.164062 40.554688 166.980469 29.230469 166.972656 C 29.035156 166.972656 28.835938 166.976562 28.632812 166.984375 " fill-opacity="1" fill-rule="nonzero"/></g><g fill="#dd1919" fill-opacity="1"><g transform="translate(52.047522, 197.746951)"><g><path d="M 10.5625 -5.703125 L 15.78125 -23.015625 L 21.0625 -23.015625 L 13.046875 0 L 8.09375 0 L 0.109375 -23.015625 L 5.375 -23.015625 Z M 10.5625 -5.703125 "/></g></g></g><g fill="#dd1919" fill-opacity="1"><g transform="translate(73.216219, 197.746951)"><g><path d="M 7.09375 0 L 2.359375 0 L 2.359375 -23.015625 L 7.09375 -23.015625 Z M 7.09375 0 "/></g></g></g><g fill="#dd1919" fill-opacity="1"><g transform="translate(82.654391, 197.746951)"><g><path d="M 2.0625 0 L 2.0625 -23.015625 L 9.140625 -23.015625 C 11.160156 -23.015625 12.96875 -22.554688 14.5625 -21.640625 C 16.164062 -20.734375 17.414062 -19.4375 18.3125 -17.75 C 19.207031 -16.070312 19.65625 -14.164062 19.65625 -12.03125 L 19.65625 -10.96875 C 19.65625 -8.832031 19.210938 -6.929688 18.328125 -5.265625 C 17.453125 -3.597656 16.210938 -2.304688 14.609375 -1.390625 C 13.003906 -0.472656 11.195312 -0.0078125 9.1875 0 Z M 6.796875 -19.171875 L 6.796875 -3.8125 L 9.09375 -3.8125 C 10.945312 -3.8125 12.363281 -4.414062 13.34375 -5.625 C 14.320312 -6.84375 14.820312 -8.578125 14.84375 -10.828125 L 14.84375 -12.046875 C 14.84375 -14.390625 14.359375 -16.160156 13.390625 -17.359375 C 12.421875 -18.566406 11.003906 -19.171875 9.140625 -19.171875 Z M 6.796875 -19.171875 "/></g></g></g><g fill="#dd1919" fill-opacity="1"><g transform="translate(103.696613, 197.746951)"><g><path d="M 15.90625 -9.96875 L 6.796875 -9.96875 L 6.796875 -3.8125 L 17.484375 -3.8125 L 17.484375 0 L 2.0625 0 L 2.0625 -23.015625 L 17.453125 -23.015625 L 17.453125 -19.171875 L 6.796875 -19.171875 L 6.796875 -13.6875 L 15.90625 -13.6875 Z M 15.90625 -9.96875 "/></g></g></g><g fill="#dd1919" fill-opacity="1"><g transform="translate(121.908965, 197.746951)"><g><path d="M 20.96875 -10.984375 C 20.96875 -8.722656 20.566406 -6.738281 19.765625 -5.03125 C 18.960938 -3.320312 17.8125 -2.003906 16.3125 -1.078125 C 14.820312 -0.148438 13.113281 0.3125 11.1875 0.3125 C 9.28125 0.3125 7.578125 -0.144531 6.078125 -1.0625 C 4.585938 -1.976562 3.429688 -3.285156 2.609375 -4.984375 C 1.785156 -6.691406 1.367188 -8.648438 1.359375 -10.859375 L 1.359375 -12 C 1.359375 -14.257812 1.765625 -16.25 2.578125 -17.96875 C 3.398438 -19.695312 4.554688 -21.019531 6.046875 -21.9375 C 7.535156 -22.863281 9.238281 -23.328125 11.15625 -23.328125 C 13.070312 -23.328125 14.773438 -22.863281 16.265625 -21.9375 C 17.765625 -21.019531 18.921875 -19.695312 19.734375 -17.96875 C 20.554688 -16.25 20.96875 -14.265625 20.96875 -12.015625 Z M 16.15625 -12.03125 C 16.15625 -14.445312 15.722656 -16.28125 14.859375 -17.53125 C 13.992188 -18.78125 12.757812 -19.40625 11.15625 -19.40625 C 9.570312 -19.40625 8.347656 -18.785156 7.484375 -17.546875 C 6.617188 -16.316406 6.179688 -14.503906 6.171875 -12.109375 L 6.171875 -10.984375 C 6.171875 -8.640625 6.597656 -6.816406 7.453125 -5.515625 C 8.316406 -4.222656 9.5625 -3.578125 11.1875 -3.578125 C 12.78125 -3.578125 14.003906 -4.195312 14.859375 -5.4375 C 15.710938 -6.6875 16.144531 -8.507812 16.15625 -10.90625 Z M 16.15625 -12.03125 "/></g></g></g><g fill="#dd1919" fill-opacity="1"><g transform="translate(144.263361, 197.746951)"><g/></g></g><g fill="#dd1919" fill-opacity="1"><g transform="translate(152.326121, 197.746951)"><g><path d="M 2.0625 0 L 2.0625 -23.015625 L 9.140625 -23.015625 C 11.160156 -23.015625 12.96875 -22.554688 14.5625 -21.640625 C 16.164062 -20.734375 17.414062 -19.4375 18.3125 -17.75 C 19.207031 -16.070312 19.65625 -14.164062 19.65625 -12.03125 L 19.65625 -10.96875 C 19.65625 -8.832031 19.210938 -6.929688 18.328125 -5.265625 C 17.453125 -3.597656 16.210938 -2.304688 14.609375 -1.390625 C 13.003906 -0.472656 11.195312 -0.0078125 9.1875 0 Z M 6.796875 -19.171875 L 6.796875 -3.8125 L 9.09375 -3.8125 C 10.945312 -3.8125 12.363281 -4.414062 13.34375 -5.625 C 14.320312 -6.84375 14.820312 -8.578125 14.84375 -10.828125 L 14.84375 -12.046875 C 14.84375 -14.390625 14.359375 -16.160156 13.390625 -17.359375 C 12.421875 -18.566406 11.003906 -19.171875 9.140625 -19.171875 Z M 6.796875 -19.171875 "/></g></g></g><g fill="#dd1919" fill-opacity="1"><g transform="translate(173.368343, 197.746951)"><g><path d="M 20.96875 -10.984375 C 20.96875 -8.722656 20.566406 -6.738281 19.765625 -5.03125 C 18.960938 -3.320312 17.8125 -2.003906 16.3125 -1.078125 C 14.820312 -0.148438 13.113281 0.3125 11.1875 0.3125 C 9.28125 0.3125 7.578125 -0.144531 6.078125 -1.0625 C 4.585938 -1.976562 3.429688 -3.285156 2.609375 -4.984375 C 1.785156 -6.691406 1.367188 -8.648438 1.359375 -10.859375 L 1.359375 -12 C 1.359375 -14.257812 1.765625 -16.25 2.578125 -17.96875 C 3.398438 -19.695312 4.554688 -21.019531 6.046875 -21.9375 C 7.535156 -22.863281 9.238281 -23.328125 11.15625 -23.328125 C 13.070312 -23.328125 14.773438 -22.863281 16.265625 -21.9375 C 17.765625 -21.019531 18.921875 -19.695312 19.734375 -17.96875 C 20.554688 -16.25 20.96875 -14.265625 20.96875 -12.015625 Z M 16.15625 -12.03125 C 16.15625 -14.445312 15.722656 -16.28125 14.859375 -17.53125 C 13.992188 -18.78125 12.757812 -19.40625 11.15625 -19.40625 C 9.570312 -19.40625 8.347656 -18.785156 7.484375 -17.546875 C 6.617188 -16.316406 6.179688 -14.503906 6.171875 -12.109375 L 6.171875 -10.984375 C 6.171875 -8.640625 6.597656 -6.816406 7.453125 -5.515625 C 8.316406 -4.222656 9.5625 -3.578125 11.1875 -3.578125 C 12.78125 -3.578125 14.003906 -4.195312 14.859375 -5.4375 C 15.710938 -6.6875 16.144531 -8.507812 16.15625 -10.90625 Z M 16.15625 -12.03125 "/></g></g></g><g fill="#dd1919" fill-opacity="1"><g transform="translate(195.722739, 197.746951)"><g><path d="M 19.984375 -6.640625 L 23.078125 -23.015625 L 27.8125 -23.015625 L 22.703125 0 L 17.921875 0 L 14.1875 -15.390625 L 10.4375 0 L 5.65625 0 L 0.546875 -23.015625 L 5.28125 -23.015625 L 8.390625 -6.671875 L 12.1875 -23.015625 L 16.203125 -23.015625 Z M 19.984375 -6.640625 "/></g></g></g><g fill="#dd1919" fill-opacity="1"><g transform="translate(224.037255, 197.746951)"><g><path d="M 20.765625 0 L 16.03125 0 L 6.796875 -15.140625 L 6.796875 0 L 2.0625 0 L 2.0625 -23.015625 L 6.796875 -23.015625 L 16.046875 -7.84375 L 16.046875 -23.015625 L 20.765625 -23.015625 Z M 20.765625 0 "/></g></g></g><g fill="#dd1919" fill-opacity="1"><g transform="translate(246.897538, 197.746951)"><g><path d="M 6.796875 -3.8125 L 16.875 -3.8125 L 16.875 0 L 2.0625 0 L 2.0625 -23.015625 L 6.796875 -23.015625 Z M 6.796875 -3.8125 "/></g></g></g><g fill="#dd1919" fill-opacity="1"><g transform="translate(264.430077, 197.746951)"><g><path d="M 20.96875 -10.984375 C 20.96875 -8.722656 20.566406 -6.738281 19.765625 -5.03125 C 18.960938 -3.320312 17.8125 -2.003906 16.3125 -1.078125 C 14.820312 -0.148438 13.113281 0.3125 11.1875 0.3125 C 9.28125 0.3125 7.578125 -0.144531 6.078125 -1.0625 C 4.585938 -1.976562 3.429688 -3.285156 2.609375 -4.984375 C 1.785156 -6.691406 1.367188 -8.648438 1.359375 -10.859375 L 1.359375 -12 C 1.359375 -14.257812 1.765625 -16.25 2.578125 -17.96875 C 3.398438 -19.695312 4.554688 -21.019531 6.046875 -21.9375 C 7.535156 -22.863281 9.238281 -23.328125 11.15625 -23.328125 C 13.070312 -23.328125 14.773438 -22.863281 16.265625 -21.9375 C 17.765625 -21.019531 18.921875 -19.695312 19.734375 -17.96875 C 20.554688 -16.25 20.96875 -14.265625 20.96875 -12.015625 Z M 16.15625 -12.03125 C 16.15625 -14.445312 15.722656 -16.28125 14.859375 -17.53125 C 13.992188 -18.78125 12.757812 -19.40625 11.15625 -19.40625 C 9.570312 -19.40625 8.347656 -18.785156 7.484375 -17.546875 C 6.617188 -16.316406 6.179688 -14.503906 6.171875 -12.109375 L 6.171875 -10.984375 C 6.171875 -8.640625 6.597656 -6.816406 7.453125 -5.515625 C 8.316406 -4.222656 9.5625 -3.578125 11.1875 -3.578125 C 12.78125 -3.578125 14.003906 -4.195312 14.859375 -5.4375 C 15.710938 -6.6875 16.144531 -8.507812 16.15625 -10.90625 Z M 16.15625 -12.03125 "/></g></g></g><g fill="#dd1919" fill-opacity="1"><g transform="translate(286.784473, 197.746951)"><g><path d="M 15.046875 -4.75 L 6.734375 -4.75 L 5.15625 0 L 0.109375 0 L 8.671875 -23.015625 L 13.078125 -23.015625 L 21.6875 0 L 16.640625 0 Z M 8.015625 -8.578125 L 13.765625 -8.578125 L 10.875 -17.203125 Z M 8.015625 -8.578125 "/></g></g></g><g fill="#dd1919" fill-opacity="1"><g transform="translate(308.569734, 197.746951)"><g><path d="M 2.0625 0 L 2.0625 -23.015625 L 9.140625 -23.015625 C 11.160156 -23.015625 12.96875 -22.554688 14.5625 -21.640625 C 16.164062 -20.734375 17.414062 -19.4375 18.3125 -17.75 C 19.207031 -16.070312 19.65625 -14.164062 19.65625 -12.03125 L 19.65625 -10.96875 C 19.65625 -8.832031 19.210938 -6.929688 18.328125 -5.265625 C 17.453125 -3.597656 16.210938 -2.304688 14.609375 -1.390625 C 13.003906 -0.472656 11.195312 -0.0078125 9.1875 0 Z M 6.796875 -19.171875 L 6.796875 -3.8125 L 9.09375 -3.8125 C 10.945312 -3.8125 12.363281 -4.414062 13.34375 -5.625 C 14.320312 -6.84375 14.820312 -8.578125 14.84375 -10.828125 L 14.84375 -12.046875 C 14.84375 -14.390625 14.359375 -16.160156 13.390625 -17.359375 C 12.421875 -18.566406 11.003906 -19.171875 9.140625 -19.171875 Z M 6.796875 -19.171875 "/></g></g></g><g fill="#dd1919" fill-opacity="1"><g transform="translate(329.611967, 197.746951)"><g><path d="M 15.90625 -9.96875 L 6.796875 -9.96875 L 6.796875 -3.8125 L 17.484375 -3.8125 L 17.484375 0 L 2.0625 0 L 2.0625 -23.015625 L 17.453125 -23.015625 L 17.453125 -19.171875 L 6.796875 -19.171875 L 6.796875 -13.6875 L 15.90625 -13.6875 Z M 15.90625 -9.96875 "/></g></g></g><g fill="#dd1919" fill-opacity="1"><g transform="translate(347.824319, 197.746951)"><g><path d="M 10.578125 -8.421875 L 6.796875 -8.421875 L 6.796875 0 L 2.0625 0 L 2.0625 -23.015625 L 10.609375 -23.015625 C 13.328125 -23.015625 15.421875 -22.40625 16.890625 -21.1875 C 18.367188 -19.976562 19.109375 -18.269531 19.109375 -16.0625 C 19.109375 -14.488281 18.769531 -13.175781 18.09375 -12.125 C 17.414062 -11.082031 16.382812 -10.25 15 -9.625 L 19.984375 -0.21875 L 19.984375 0 L 14.890625 0 Z M 6.796875 -12.265625 L 10.625 -12.265625 C 11.8125 -12.265625 12.734375 -12.566406 13.390625 -13.171875 C 14.046875 -13.773438 14.375 -14.613281 14.375 -15.6875 C 14.375 -16.769531 14.0625 -17.617188 13.4375 -18.234375 C 12.820312 -18.859375 11.878906 -19.171875 10.609375 -19.171875 L 6.796875 -19.171875 Z M 6.796875 -12.265625 "/></g></g></g></svg>